<?xml version="1.0" encoding="UTF-8"?>
<svg xmlns="http://www.w3.org/2000/svg" xmlns:xlink="http://www.w3.org/1999/xlink" viewBox="0 0 40 40" width="40px" height="40px">
<g id="surface47259">
<path style=" stroke:none;fill-rule:nonzero;fill:rgb(100%,100%,100%);fill-opacity:1;" d="M 14.238281 5.574219 C 13.425781 5.574219 12.667969 5.757812 12 6.144531 C 9.90625 7.351562 9.113281 10.292969 9.535156 13.957031 C 6.148438 15.425781 4 17.585938 4 20 C 4 22.414062 6.148438 24.574219 9.535156 26.042969 C 9.113281 29.707031 9.90625 32.648438 12 33.855469 C 12.667969 34.242188 13.421875 34.425781 14.238281 34.425781 C 15.976562 34.425781 17.984375 33.554688 20 32.058594 C 22.015625 33.554688 24.027344 34.425781 25.761719 34.425781 C 26.578125 34.425781 27.332031 34.242188 28.003906 33.855469 C 30.09375 32.648438 30.890625 29.707031 30.46875 26.042969 C 33.851562 24.574219 36 22.414062 36 20 C 36 17.585938 33.851562 15.425781 30.464844 13.957031 C 30.886719 10.292969 30.09375 7.351562 28 6.144531 C 27.332031 5.757812 26.578125 5.574219 25.761719 5.574219 C 24.023438 5.574219 22.015625 6.445312 20 7.941406 C 17.984375 6.445312 15.976562 5.574219 14.238281 5.574219 Z M 14.238281 7.910156 C 15.28125 7.910156 16.660156 8.464844 18.15625 9.488281 C 17.277344 10.320312 16.414062 11.265625 15.585938 12.316406 C 14.242188 12.507812 12.972656 12.789062 11.800781 13.140625 C 11.792969 13.058594 11.777344 12.972656 11.773438 12.894531 C 11.628906 10.519531 12.152344 8.75 13.167969 8.164062 C 13.464844 7.992188 13.816406 7.910156 14.238281 7.910156 Z M 25.761719 7.910156 C 26.183594 7.910156 26.535156 7.992188 26.832031 8.164062 C 27.847656 8.75 28.371094 10.519531 28.226562 12.894531 C 28.222656 12.972656 28.207031 13.058594 28.199219 13.140625 C 27.027344 12.789062 25.757812 12.507812 24.410156 12.316406 C 23.582031 11.265625 22.722656 10.320312 21.84375 9.488281 C 23.339844 8.464844 24.71875 7.910156 25.761719 7.910156 Z M 20 10.972656 C 20.363281 11.300781 20.71875 11.648438 21.082031 12.027344 C 20.722656 12.015625 20.367188 12 20 12 C 19.636719 12 19.277344 12.015625 18.917969 12.027344 C 19.28125 11.648438 19.640625 11.300781 20 10.972656 Z M 20 14.332031 C 21.105469 14.332031 22.152344 14.394531 23.144531 14.503906 C 23.75 15.328125 24.347656 16.195312 24.910156 17.167969 C 25.445312 18.097656 25.917969 19.046875 26.339844 20 C 25.917969 20.953125 25.445312 21.90625 24.910156 22.835938 C 24.351562 23.800781 23.753906 24.667969 23.152344 25.488281 C 22.121094 25.601562 21.066406 25.667969 20 25.667969 C 18.894531 25.667969 17.847656 25.605469 16.855469 25.496094 C 16.25 24.671875 15.652344 23.804688 15.089844 22.835938 C 14.554688 21.90625 14.082031 20.953125 13.660156 20 C 14.078125 19.046875 14.554688 18.097656 15.089844 17.167969 C 15.648438 16.199219 16.246094 15.332031 16.847656 14.511719 C 17.878906 14.398438 18.933594 14.332031 20 14.332031 Z M 26.328125 15.054688 C 26.855469 15.183594 27.367188 15.320312 27.84375 15.472656 C 27.734375 15.964844 27.601562 16.460938 27.453125 16.964844 C 27.28125 16.644531 27.113281 16.320312 26.929688 16 C 26.738281 15.667969 26.527344 15.371094 26.328125 15.054688 Z M 13.667969 15.058594 C 13.472656 15.375 13.261719 15.671875 13.070312 16 C 12.886719 16.320312 12.71875 16.644531 12.546875 16.964844 C 12.398438 16.460938 12.261719 15.960938 12.152344 15.472656 C 12.640625 15.316406 13.148438 15.179688 13.667969 15.058594 Z M 9.957031 16.328125 C 10.238281 17.515625 10.628906 18.742188 11.128906 19.996094 C 10.628906 21.246094 10.242188 22.476562 9.960938 23.660156 C 7.640625 22.539062 6.332031 21.140625 6.332031 20 C 6.332031 18.828125 7.601562 17.492188 9.730469 16.429688 C 9.800781 16.394531 9.882812 16.363281 9.957031 16.328125 Z M 30.039062 16.339844 C 32.359375 17.460938 33.667969 18.859375 33.667969 20 C 33.667969 21.171875 32.398438 22.507812 30.269531 23.570312 C 30.199219 23.605469 30.117188 23.636719 30.042969 23.671875 C 29.761719 22.484375 29.375 21.253906 28.871094 20 C 29.371094 18.75 29.757812 17.523438 30.039062 16.339844 Z M 20 17.332031 C 18.527344 17.332031 17.332031 18.527344 17.332031 20 C 17.332031 21.472656 18.527344 22.667969 20 22.667969 C 21.472656 22.667969 22.667969 21.472656 22.667969 20 C 22.667969 18.527344 21.472656 17.332031 20 17.332031 Z M 12.546875 23.035156 C 12.71875 23.355469 12.886719 23.679688 13.074219 24 C 13.261719 24.332031 13.472656 24.628906 13.671875 24.945312 C 13.144531 24.816406 12.632812 24.679688 12.15625 24.527344 C 12.265625 24.035156 12.398438 23.539062 12.546875 23.035156 Z M 27.453125 23.035156 C 27.601562 23.539062 27.738281 24.039062 27.847656 24.527344 C 27.359375 24.683594 26.851562 24.820312 26.332031 24.941406 C 26.527344 24.625 26.738281 24.328125 26.929688 24 C 27.113281 23.679688 27.28125 23.359375 27.453125 23.035156 Z M 11.800781 26.859375 C 12.972656 27.210938 14.242188 27.492188 15.589844 27.683594 C 16.417969 28.738281 17.277344 29.683594 18.15625 30.511719 C 16.660156 31.539062 15.28125 32.09375 14.238281 32.09375 C 13.816406 32.09375 13.464844 32.007812 13.167969 31.835938 C 12.152344 31.25 11.628906 29.484375 11.773438 27.109375 C 11.777344 27.027344 11.792969 26.941406 11.800781 26.859375 Z M 28.199219 26.859375 C 28.207031 26.941406 28.222656 27.027344 28.226562 27.109375 C 28.371094 29.484375 27.847656 31.25 26.832031 31.835938 C 26.535156 32.007812 26.183594 32.09375 25.761719 32.09375 C 24.71875 32.09375 23.339844 31.539062 21.84375 30.511719 C 22.722656 29.683594 23.585938 28.738281 24.414062 27.683594 C 25.757812 27.492188 27.027344 27.210938 28.199219 26.859375 Z M 18.917969 27.972656 C 19.277344 27.984375 19.632812 28 20 28 C 20.367188 28 20.722656 27.984375 21.082031 27.972656 C 20.71875 28.351562 20.363281 28.699219 20 29.027344 C 19.636719 28.699219 19.28125 28.351562 18.917969 27.972656 Z M 18.917969 27.972656 "/>
</g>
</svg>
